<svg xmlns="http://www.w3.org/2000/svg" width="13" height="13" viewBox="0 0 13 13">
  <defs>
    <linearGradient id="route" x1="1" y1="3" x2="12" y2="10" gradientUnits="userSpaceOnUse">
      <stop stop-color="#5EEAD4"/>
      <stop offset="1" stop-color="#A3E635"/>
    </linearGradient>
  </defs>
  <path d="M2.2 4h4c1 0 1.8.8 1.8 1.8v1.4C8 8.2 8.8 9 9.8 9h.7" stroke="url(#route)" stroke-width="1.7" stroke-linecap="round"/>
  <path d="M10.2 7.4 12.1 9l-1.9 1.6v-1h-1.6V8.4h1.6v-1Z" fill="#E5E7EB"/>
  <path d="M2.6 9.8H1.8L1 9V4l.8-.8h.8v1.4h-.4v3.8h.4v1.4Z" fill="#FBBF24"/>
  <path d="M10.4 3.2h.8l.8.8v2.2h-1.4V4.6h-.2V3.2Z" fill="#5EEAD4"/>
  <circle cx="6.5" cy="6.5" r="2.6" fill="#F9FAFB"/>
  <circle cx="6.5" cy="6.5" r="1.8" fill="#0F172A"/>
  <path d="M5.1 7.5 6.1 5.3h.8l1 2.2h-.7l-.1-.4H5.9l-.1.4h-.7Zm1-1h.8l-.4-.8-.4.8Z" fill="#F9FAFB"/>
</svg>
